PathFileType	4	(X/Y/Z)	c:/Users/goper/Files/vsCode/490R/osim_files/C08/C08_Fast_06.trc
DataRate	CameraRate	NumFrames	NumMarkers	Units                	OrigDataRate	OrigDataStartFrame	OrigNumFrames
250.00	250.00	6	36	mm	250.0	825	2198
                Frame#	Time	LPSIS			LASIS			LTH1			LTH2			LTH3			LTH4			LLFE			LMFE			LSH1			LSH2			LSH3			LSH4			LLMAL			LMMAL			LCAL			LMTP5			LTOE			LMTP1			RPSIS			RASIS			RTH1			RTH2			RTH3			RTH4			RLFE			RMFE			RSH1			RSH2			RSH3			RSH4			RLMAL			RMMAL			RCAL			RMTP1			RTOE			RMTP5		
		X1	Y1	Z1	X2	Y2	Z2	X3	Y3	Z3	X4	Y4	Z4	X5	Y5	Z5	X6	Y6	Z6	X7	Y7	Z7	X8	Y8	Z8	X9	Y9	Z9	X10	Y10	Z10	X11	Y11	Z11	X12	Y12	Z12	X13	Y13	Z13	X14	Y14	Z14	X15	Y15	Z15	X16	Y16	Z16	X17	Y17	Z17	X18	Y18	Z18	X19	Y19	Z19	X20	Y20	Z20	X21	Y21	Z21	X22	Y22	Z22	X23	Y23	Z23	X24	Y24	Z24	X25	Y25	Z25	X26	Y26	Z26	X27	Y27	Z27	X28	Y28	Z28	X29	Y29	Z29	X30	Y30	Z30	X31	Y31	Z31	X32	Y32	Z32	X33	Y33	Z33	X34	Y34	Z34	X35	Y35	Z35	X36	Y36	Z36

825	3.29600	622.28943	1050.40588	210.64674	420.91809	1013.96924	306.55844	449.64572	735.25134	382.66699	423.45645	659.58838	372.21597	402.57324	589.38519	371.94052	349.53430	688.78711	367.70865	394.72055	543.27423	366.23297	359.50494	533.48669	240.04681	487.72983	488.43048	365.06192	515.38055	448.73727	365.95993	441.27139	449.09821	376.10684	473.16476	416.25018	370.65030	688.58203	241.60440	309.16977	654.95111	227.09752	226.65796	740.99738	267.24698	244.89641	655.68182	118.27008	347.71326	588.57361	93.76575	298.39365	622.19952	95.13963	241.86530	618.45355	1051.14978	151.00360	418.36957	1021.74683	66.98889	469.67572	750.96729	11.76713	467.45056	674.07312	32.41590	466.63403	595.88654	44.08220	394.59305	682.62744	61.83973	459.36029	524.58777	64.34341	467.97018	521.69287	187.14818	517.15997	441.53589	46.44610	512.00903	396.36798	43.99320	454.88931	438.75327	59.34715	459.15588	394.54102	55.23976	540.05829	101.06400	111.12987	510.82355	105.28351	200.10881	598.62006	77.82046	181.78516	383.25357	45.68662	186.19289	366.66666	63.79945	132.56914	419.66452	45.93356	73.22178
826	3.30000	617.18872	1051.01868	210.97055	415.46124	1015.17981	305.72122	441.80579	736.63489	382.78293	415.89423	661.45636	372.82291	393.59253	591.13837	371.83835	341.03580	690.60419	366.89703	385.34741	544.97119	365.85861	350.92722	535.60242	239.39104	478.11554	488.50540	364.53708	505.17325	448.51547	365.57812	431.00415	449.94302	375.55060	463.13202	417.23843	371.67603	675.41010	238.53041	309.39441	641.34894	224.37065	226.91586	728.24707	262.77844	245.28334	640.02478	115.86780	348.29730	573.23328	91.42168	297.62714	605.88538	93.16578	242.27695	613.46686	1051.77466	151.27805	413.85593	1022.25781	66.64905	467.22717	751.37738	11.37738	464.79517	674.25177	32.28713	464.56802	595.74109	44.38671	392.24387	682.27478	61.90515	458.44058	524.68378	64.26173	466.99268	521.94128	187.07663	515.97772	441.50305	46.70702	511.66806	396.65707	44.02974	454.77203	439.28979	58.95884	458.77853	394.72995	55.12984	539.93878	101.25262	111.22408	510.72119	105.43189	200.19051	598.53662	77.98901	181.88077	383.26181	45.66872	186.18712	366.61267	63.74118	132.54893	419.63565	45.91217	73.19466
827	3.30400	612.08929	1051.60498	211.29640	409.97900	1016.26056	304.94150	434.02036	737.99225	382.90140	406.69833	662.63983	372.34164	384.64487	592.87415	371.69687	333.06332	692.73956	366.04297	376.10110	546.60669	365.45236	339.88156	538.26312	238.96211	468.47937	488.47705	363.97815	494.87491	448.19269	365.21817	421.15372	450.95410	374.98749	452.08978	416.95660	370.28043	661.47113	234.78905	309.69565	627.70569	221.49359	227.16991	715.33337	258.08502	245.68394	623.54309	113.13183	348.66101	556.67175	90.39867	298.16635	589.44055	91.05287	242.75934	608.48169	1052.35632	151.55099	409.34613	1022.61841	66.33470	464.15421	751.59015	11.27902	463.21652	674.67017	31.88076	462.47922	595.57764	44.71920	389.94095	681.87921	61.94682	457.46082	524.80103	64.15459	465.92084	522.10522	187.02216	515.51642	441.79938	46.76437	511.29312	396.94476	44.04892	454.26138	439.44357	58.83051	458.34686	394.89792	55.03228	539.76990	101.41419	111.33234	510.60617	105.56655	200.25229	598.39429	78.10015	182.00838	383.20801	45.64317	186.15089	366.57068	63.67918	132.52022	419.61884	45.89225	73.19376
828	3.30800	606.93549	1052.14697	211.60204	404.41620	1017.31970	304.07666	426.27094	739.33051	383.02567	398.37494	664.09674	372.41409	375.77002	594.55048	371.53976	325.19614	694.89740	365.22159	366.89334	548.25677	365.03552	331.57785	540.28259	238.31554	458.97150	488.38174	363.37485	484.62234	447.77905	364.86554	410.63535	451.49094	374.36398	441.33783	417.11423	369.88251	648.08612	231.48409	309.92993	613.93665	218.38081	227.34335	702.23767	253.24757	246.07520	607.17780	110.49157	349.13409	539.99792	89.08742	298.51144	572.84570	88.94956	243.20802	603.50775	1052.88428	151.75980	404.83295	1022.91095	66.02598	461.16245	751.76373	11.16344	460.05219	674.51904	32.07645	460.37668	595.40283	45.07092	387.60123	681.52448	61.98385	456.56345	524.87579	64.05935	464.92062	522.23657	186.94633	514.94147	442.08908	46.76749	510.86108	397.23773	44.05676	453.72488	439.61188	58.71485	457.87723	395.06790	54.89789	539.99738	101.96714	110.97860	510.42953	105.69479	200.32448	598.28821	78.23901	182.10451	383.15894	45.61679	186.11153	366.50909	63.60011	132.49625	419.61349	45.87785	73.16595
829	3.31200	601.82257	1052.64221	211.89603	398.89713	1018.32098	303.21405	418.56293	740.63208	383.10522	391.55280	666.44385	373.29056	366.99939	596.26221	371.32672	317.45264	697.23059	364.29330	357.85867	549.91693	364.59195	323.53015	542.26312	237.65643	449.57846	488.24091	362.82202	474.78040	447.56180	364.45654	400.61658	452.22861	373.75531	430.32495	417.13031	368.98782	633.91650	227.55077	310.20438	600.21936	215.36014	227.39525	689.20984	248.50171	246.38190	590.93536	107.85491	349.57587	523.08453	87.65168	298.75156	556.06763	86.86508	243.65878	598.51312	1053.36731	151.97112	400.20203	1023.14886	65.72971	458.30545	751.97937	11.06931	457.76822	674.67133	31.95795	458.26959	595.22327	45.43313	385.26025	681.11554	62.04158	455.59665	524.95959	63.97673	463.84991	522.32471	186.88078	514.37885	442.38095	46.78239	510.35052	397.53009	44.06701	453.84286	440.38492	57.56012	457.42676	395.20551	54.81027	539.44043	101.61734	111.59126	510.29730	105.86061	200.40439	598.18115	78.38554	182.21527	382.60959	45.82219	186.42175	366.43710	63.54774	132.45969	419.61960	45.85234	73.13688
830	3.31600	596.71606	1053.13147	212.17497	393.40240	1019.21118	302.31946	410.84644	742.13318	384.04077	381.98630	666.98920	372.26645	358.27289	597.91870	371.04373	309.69376	699.25336	363.44168	348.96469	552.18457	364.30594	315.55161	544.17596	237.05165	440.21118	488.01944	362.27365	464.35483	446.78171	364.05148	390.57129	452.91635	373.12570	420.12839	417.43246	368.99579	619.81726	223.70110	310.90036	586.21008	212.23337	227.65123	675.90289	243.32526	246.80472	574.04358	105.16788	350.10751	506.25803	86.50581	299.12442	539.10931	84.79346	244.13240	593.57788	1053.82678	152.12373	396.52625	1023.10901	65.56175	455.54520	752.17181	10.93742	456.21698	675.03625	31.54951	456.16711	595.04559	45.79708	382.93103	680.71057	62.04240	454.66211	525.03052	63.87178	462.79926	522.33295	186.74576	513.77521	442.62479	46.80450	509.89417	397.76471	44.07455	452.47891	439.90588	58.48994	456.91269	395.35110	54.72408	539.25897	101.76672	111.71353	509.46100	106.09889	200.55426	598.19409	78.46854	182.21317	382.63351	45.83335	186.27419	366.37744	63.51147	132.41832	419.61407	45.85569	73.10006
